<mxfile host="app.diagrams.net" modified="2023-12-03T09:47:04.303Z" agent="Mozilla/5.0 (Macintosh; Intel Mac OS X 10_15_7) AppleWebKit/537.36 (KHTML, like Gecko) Chrome/116.0.5845.2325 YaBrowser/23.9.0.2325 Yowser/2.5 Safari/537.36" etag="lCutd2YNJO6xkOB5TdEr" version="22.1.5" type="github">
  <diagram name="Страница — 1" id="SaMEEwL-zS1KeIrQqYfi">
    <mxGraphModel dx="1802" dy="1031" grid="1" gridSize="10" guides="1" tooltips="1" connect="1" arrows="1" fold="1" page="1" pageScale="1" pageWidth="827" pageHeight="1169" math="0" shadow="0">
      <root>
        <mxCell id="0" />
        <mxCell id="1" parent="0" />
        <mxCell id="6lvTWFq-2f8NmOHutaTu-1" style="edgeStyle=orthogonalEdgeStyle;rounded=0;orthogonalLoop=1;jettySize=auto;html=1;entryX=0.5;entryY=0;entryDx=0;entryDy=0;" edge="1" parent="1" source="6lvTWFq-2f8NmOHutaTu-4" target="6lvTWFq-2f8NmOHutaTu-5">
          <mxGeometry relative="1" as="geometry" />
        </mxCell>
        <mxCell id="6lvTWFq-2f8NmOHutaTu-2" style="edgeStyle=orthogonalEdgeStyle;rounded=0;orthogonalLoop=1;jettySize=auto;html=1;entryX=0.5;entryY=0;entryDx=0;entryDy=0;" edge="1" parent="1" source="6lvTWFq-2f8NmOHutaTu-4" target="6lvTWFq-2f8NmOHutaTu-6">
          <mxGeometry relative="1" as="geometry" />
        </mxCell>
        <mxCell id="6lvTWFq-2f8NmOHutaTu-3" style="edgeStyle=orthogonalEdgeStyle;rounded=0;orthogonalLoop=1;jettySize=auto;html=1;entryX=0.5;entryY=0;entryDx=0;entryDy=0;" edge="1" parent="1" source="6lvTWFq-2f8NmOHutaTu-4" target="6lvTWFq-2f8NmOHutaTu-7">
          <mxGeometry relative="1" as="geometry" />
        </mxCell>
        <mxCell id="6lvTWFq-2f8NmOHutaTu-4" value="HTTP-GateWay" style="shape=hexagon;perimeter=hexagonPerimeter2;whiteSpace=wrap;html=1;fixedSize=1;fillColor=#FFFFFF;size=20;" vertex="1" parent="1">
          <mxGeometry x="320" y="280" width="160" height="80" as="geometry" />
        </mxCell>
        <mxCell id="6lvTWFq-2f8NmOHutaTu-5" value="Auth" style="rounded=0;whiteSpace=wrap;html=1;fillColor=#FFFFFF;" vertex="1" parent="1">
          <mxGeometry x="120" y="400" width="160" height="80" as="geometry" />
        </mxCell>
        <mxCell id="6lvTWFq-2f8NmOHutaTu-6" value="CheckOut" style="rounded=0;whiteSpace=wrap;html=1;fillColor=#FFFFFF;" vertex="1" parent="1">
          <mxGeometry x="320" y="400" width="160" height="80" as="geometry" />
        </mxCell>
        <mxCell id="6lvTWFq-2f8NmOHutaTu-7" value="Billing" style="rounded=0;whiteSpace=wrap;html=1;fillColor=#FFFFFF;" vertex="1" parent="1">
          <mxGeometry x="520" y="400" width="160" height="80" as="geometry" />
        </mxCell>
        <mxCell id="6lvTWFq-2f8NmOHutaTu-8" value="UserDB" style="shape=cylinder3;whiteSpace=wrap;html=1;boundedLbl=1;backgroundOutline=1;size=15;" vertex="1" parent="1">
          <mxGeometry x="160" y="520" width="80" height="80" as="geometry" />
        </mxCell>
        <mxCell id="6lvTWFq-2f8NmOHutaTu-9" style="edgeStyle=orthogonalEdgeStyle;rounded=0;orthogonalLoop=1;jettySize=auto;html=1;entryX=0.5;entryY=0;entryDx=0;entryDy=0;entryPerimeter=0;" edge="1" parent="1" source="6lvTWFq-2f8NmOHutaTu-5" target="6lvTWFq-2f8NmOHutaTu-8">
          <mxGeometry relative="1" as="geometry" />
        </mxCell>
        <mxCell id="6lvTWFq-2f8NmOHutaTu-10" value="CartDB" style="shape=cylinder3;whiteSpace=wrap;html=1;boundedLbl=1;backgroundOutline=1;size=15;" vertex="1" parent="1">
          <mxGeometry x="360" y="520" width="80" height="80" as="geometry" />
        </mxCell>
        <mxCell id="6lvTWFq-2f8NmOHutaTu-11" style="edgeStyle=orthogonalEdgeStyle;rounded=0;orthogonalLoop=1;jettySize=auto;html=1;entryX=0.5;entryY=0;entryDx=0;entryDy=0;entryPerimeter=0;" edge="1" parent="1" source="6lvTWFq-2f8NmOHutaTu-6" target="6lvTWFq-2f8NmOHutaTu-10">
          <mxGeometry relative="1" as="geometry" />
        </mxCell>
        <mxCell id="6lvTWFq-2f8NmOHutaTu-12" value="BillDB" style="shape=cylinder3;whiteSpace=wrap;html=1;boundedLbl=1;backgroundOutline=1;size=15;" vertex="1" parent="1">
          <mxGeometry x="560" y="520" width="80" height="80" as="geometry" />
        </mxCell>
        <mxCell id="6lvTWFq-2f8NmOHutaTu-13" style="edgeStyle=orthogonalEdgeStyle;rounded=0;orthogonalLoop=1;jettySize=auto;html=1;entryX=0.5;entryY=0;entryDx=0;entryDy=0;entryPerimeter=0;" edge="1" parent="1" source="6lvTWFq-2f8NmOHutaTu-7" target="6lvTWFq-2f8NmOHutaTu-12">
          <mxGeometry relative="1" as="geometry" />
        </mxCell>
        <mxCell id="6lvTWFq-2f8NmOHutaTu-14" style="edgeStyle=orthogonalEdgeStyle;rounded=0;orthogonalLoop=1;jettySize=auto;html=1;entryX=0.5;entryY=0;entryDx=0;entryDy=0;" edge="1" parent="1" source="6lvTWFq-2f8NmOHutaTu-15" target="6lvTWFq-2f8NmOHutaTu-4">
          <mxGeometry relative="1" as="geometry" />
        </mxCell>
        <mxCell id="6lvTWFq-2f8NmOHutaTu-15" value="EndPoints:&lt;br&gt;- POST /registration&lt;br&gt;- POST /login" style="whiteSpace=wrap;html=1;aspect=fixed;align=left;" vertex="1" parent="1">
          <mxGeometry x="320" y="80" width="160" height="160" as="geometry" />
        </mxCell>
      </root>
    </mxGraphModel>
  </diagram>
</mxfile>
